<mxfile host="app.diagrams.net" agent="Mozilla/5.0 (Windows NT 10.0; Win64; x64) AppleWebKit/537.36 (KHTML, like Gecko) Chrome/129.0.0.0 Safari/537.36" version="24.7.17">
  <diagram name="Page-1" id="-8-iEjhuz0tJnlTvtKs3">
    <mxGraphModel dx="1434" dy="746" grid="1" gridSize="10" guides="1" tooltips="1" connect="1" arrows="1" fold="1" page="1" pageScale="1" pageWidth="850" pageHeight="1100" math="0" shadow="0">
      <root>
        <mxCell id="0" />
        <mxCell id="1" parent="0" />
        <mxCell id="PDceWyWmfySdRPGkdBlP-1" value="Start" style="whiteSpace=wrap;strokeWidth=2;" vertex="1" parent="1">
          <mxGeometry x="101" y="20" width="96" height="49" as="geometry" />
        </mxCell>
        <mxCell id="PDceWyWmfySdRPGkdBlP-2" value="Admin clicks &#39;Forgot Password&#39;" style="whiteSpace=wrap;strokeWidth=2;" vertex="1" parent="1">
          <mxGeometry x="26" y="119" width="244" height="67" as="geometry" />
        </mxCell>
        <mxCell id="PDceWyWmfySdRPGkdBlP-3" value="Admin inputs their email" style="whiteSpace=wrap;strokeWidth=2;" vertex="1" parent="1">
          <mxGeometry x="29" y="236" width="239" height="49" as="geometry" />
        </mxCell>
        <mxCell id="PDceWyWmfySdRPGkdBlP-4" value="Send password reset link" style="whiteSpace=wrap;strokeWidth=2;" vertex="1" parent="1">
          <mxGeometry x="30" y="335" width="238" height="49" as="geometry" />
        </mxCell>
        <mxCell id="PDceWyWmfySdRPGkdBlP-5" value="Admin clicks link" style="whiteSpace=wrap;strokeWidth=2;" vertex="1" parent="1">
          <mxGeometry x="57" y="434" width="182" height="49" as="geometry" />
        </mxCell>
        <mxCell id="PDceWyWmfySdRPGkdBlP-6" value="Admin sets a new password" style="whiteSpace=wrap;strokeWidth=2;" vertex="1" parent="1">
          <mxGeometry x="20" y="533" width="257" height="49" as="geometry" />
        </mxCell>
        <mxCell id="PDceWyWmfySdRPGkdBlP-7" value="Confirmation message sent" style="whiteSpace=wrap;strokeWidth=2;" vertex="1" parent="1">
          <mxGeometry x="21" y="632" width="254" height="49" as="geometry" />
        </mxCell>
        <mxCell id="PDceWyWmfySdRPGkdBlP-8" value="End" style="whiteSpace=wrap;strokeWidth=2;" vertex="1" parent="1">
          <mxGeometry x="105" y="731" width="86" height="49" as="geometry" />
        </mxCell>
        <mxCell id="PDceWyWmfySdRPGkdBlP-9" value="" style="curved=1;startArrow=none;endArrow=block;exitX=0.49;exitY=1;entryX=0.5;entryY=0;rounded=0;" edge="1" parent="1" source="PDceWyWmfySdRPGkdBlP-1" target="PDceWyWmfySdRPGkdBlP-2">
          <mxGeometry relative="1" as="geometry">
            <Array as="points" />
          </mxGeometry>
        </mxCell>
        <mxCell id="PDceWyWmfySdRPGkdBlP-10" value="" style="curved=1;startArrow=none;endArrow=block;exitX=0.5;exitY=0.99;entryX=0.5;entryY=-0.01;rounded=0;" edge="1" parent="1" source="PDceWyWmfySdRPGkdBlP-2" target="PDceWyWmfySdRPGkdBlP-3">
          <mxGeometry relative="1" as="geometry">
            <Array as="points" />
          </mxGeometry>
        </mxCell>
        <mxCell id="PDceWyWmfySdRPGkdBlP-11" value="" style="curved=1;startArrow=none;endArrow=block;exitX=0.5;exitY=0.99;entryX=0.5;entryY=-0.01;rounded=0;" edge="1" parent="1" source="PDceWyWmfySdRPGkdBlP-3" target="PDceWyWmfySdRPGkdBlP-4">
          <mxGeometry relative="1" as="geometry">
            <Array as="points" />
          </mxGeometry>
        </mxCell>
        <mxCell id="PDceWyWmfySdRPGkdBlP-12" value="" style="curved=1;startArrow=none;endArrow=block;exitX=0.5;exitY=0.99;entryX=0.5;entryY=-0.01;rounded=0;" edge="1" parent="1" source="PDceWyWmfySdRPGkdBlP-4" target="PDceWyWmfySdRPGkdBlP-5">
          <mxGeometry relative="1" as="geometry">
            <Array as="points" />
          </mxGeometry>
        </mxCell>
        <mxCell id="PDceWyWmfySdRPGkdBlP-13" value="" style="curved=1;startArrow=none;endArrow=block;exitX=0.5;exitY=0.99;entryX=0.5;entryY=-0.01;rounded=0;" edge="1" parent="1" source="PDceWyWmfySdRPGkdBlP-5" target="PDceWyWmfySdRPGkdBlP-6">
          <mxGeometry relative="1" as="geometry">
            <Array as="points" />
          </mxGeometry>
        </mxCell>
        <mxCell id="PDceWyWmfySdRPGkdBlP-14" value="" style="curved=1;startArrow=none;endArrow=block;exitX=0.5;exitY=0.99;entryX=0.5;entryY=-0.01;rounded=0;" edge="1" parent="1" source="PDceWyWmfySdRPGkdBlP-6" target="PDceWyWmfySdRPGkdBlP-7">
          <mxGeometry relative="1" as="geometry">
            <Array as="points" />
          </mxGeometry>
        </mxCell>
        <mxCell id="PDceWyWmfySdRPGkdBlP-15" value="" style="curved=1;startArrow=none;endArrow=block;exitX=0.5;exitY=0.99;entryX=0.51;entryY=-0.01;rounded=0;" edge="1" parent="1" source="PDceWyWmfySdRPGkdBlP-7" target="PDceWyWmfySdRPGkdBlP-8">
          <mxGeometry relative="1" as="geometry">
            <Array as="points" />
          </mxGeometry>
        </mxCell>
      </root>
    </mxGraphModel>
  </diagram>
</mxfile>
